<?xml version="1.0" encoding="utf-8"?>
<!-- Generator: Adobe Adobe Illustrator 24.2.0, SVG Export Plug-In . SVG Version: 6.00 Build 0)  -->
<svg version="1.1" id="レイヤー_1" xmlns="http://www.w3.org/2000/svg" xmlns:xlink="http://www.w3.org/1999/xlink" x="0px"
	 y="0px" width="1920px" height="1080px" viewBox="0 0 1920 1080" style="enable-background:new 0 0 1920 1080;"
	 xml:space="preserve">
<style type="text/css">
	.st0{fill:#FFECCF;stroke:#000000;stroke-miterlimit:10;}
	.st1{fill:#F5A9B7;stroke:#000000;stroke-miterlimit:10;}
	.st2{stroke:#000000;stroke-miterlimit:10;}
	.st3{fill:#F2D3D3;stroke:#000000;stroke-miterlimit:10;}
	.st4{fill:url(#SVGID_1_);stroke:#000000;stroke-miterlimit:10;}
	.st5{fill:#E8E8E8;stroke:#000000;stroke-miterlimit:10;}
	.st6{fill:#FFECCF;}
	.st7{fill:none;stroke:#000000;stroke-miterlimit:10;}
</style>
<g>
	<circle class="st0" cx="612.03" cy="898.01" r="54.06"/>
	<path class="st0" d="M733.24,555.14c-83.3,119.47-107.46,278.18-63.49,417.03c2.69,8.49,5.87,17.3,12.5,23.24
		c8.19,7.33,19.91,8.82,30.86,9.85c104.46,9.77,209.63,7.43,314.52,5.08c23.33-0.52,48.27-1.56,67.16-15.27
		c24.95-18.11,31.33-52.16,33.72-82.89c4.27-54.89,2.11-110.06-0.05-165.08c-2.33-59.37-5.05-120.44-29.43-174.62
		c-3.56-7.91-7.86-15.97-15.05-20.81c-6.7-4.51-15.05-5.66-23.07-6.64c-80.46-9.83-161.51-14.77-242.56-14.79
		c-27.18-0.01-56.87,1.46-77.29,19.4C746.38,549.95,751.7,550.28,733.24,555.14z"/>
	<ellipse class="st0" cx="911.01" cy="369.52" rx="321.08" ry="234.26"/>
	<path class="st1" d="M1174.92,493.49c-8.06-13.61-27.32-17.39-42.02-11.54c-14.69,5.85-25.25,19.1-32.53,33.14
		c-5.62,10.84-8.21,27.02,2.54,32.8c7.48,4.02,16.61-0.04,23.91-4.4C1147.4,531.2,1166.37,516.23,1174.92,493.49z"/>
	<g>
		<ellipse class="st2" cx="1095.5" cy="279.48" rx="43.7" ry="40.95"/>
		<ellipse class="st3" cx="1074.27" cy="264.19" rx="11.55" ry="10.83"/>
	</g>
	<path class="st3" d="M925.66,238.52c9.11-38,5.69-78.1-3.54-116.07c-2.55-10.51-5.62-21.08-11.42-30.21
		c-16.02-25.2-53.65-33.41-78.71-17.15c-16.37,10.62-26.22,28.89-41.39,41.17c-15.14,12.25-34.45,17.73-52.74,24.43
		c-10.65,3.9-23.35,13.91-17.83,23.82c3.85,6.9,13.58,6.95,21.45,6.18c14.73-1.43,29.77-2.49,44.21,0.79
		c14.44,3.28,28.41,11.51,35.3,24.62c2.46,4.67,4.57,10.42,9.6,12.03C839.21,210.88,848.27,198.87,925.66,238.52z"/>
	<path class="st3" d="M1231.4,345.92c-20.52-16.22-53.04-14.51-71.74,3.77c-10.22,9.99-15.81,27.5-6.47,38.31
		c4.13,4.78,10.3,7.21,16.33,9.11c14.23,4.47,29.1,6.88,44.02,7.14c3.1,0.05,6.46-0.07,8.87-2.02c2.17-1.75,3.08-4.59,3.84-7.28
		C1230.48,380.06,1233.52,364.82,1231.4,345.92z"/>
	<g>
		
			<radialGradient id="SVGID_1_" cx="1122.8999" cy="666.2487" r="215.6589" gradientTransform="matrix(0.6486 0 0 0.6872 566.3729 314.8185)" gradientUnits="userSpaceOnUse">
			<stop  offset="0" style="stop-color:#8A8686"/>
			<stop  offset="1" style="stop-color:#0F0F0F"/>
		</radialGradient>
		<path class="st4" d="M1272.55,911.71c-25.25-97.24-50.49-194.47-75.74-291.71c55.63-7.17,110.56-20.46,163.62-39.58
			c17.25,90.91,34.49,181.81,51.74,272.72c0.98,5.15,1.93,10.62,0.14,15.52c-1.97,5.4-6.83,8.91-11.48,11.95
			c-37.22,24.38-78.59,41.62-121.51,50.64C1273.36,914.55,1270.67,896.55,1272.55,911.71z"/>
		<path class="st2" d="M1360.19,571.46c35.48-68.45,72.85-135.8,112.03-201.94c37.77,95.08,74.52,190.6,110.24,286.56
			c2.44,6.54,4.91,13.52,3.73,20.44c-1.12,6.55-5.34,11.96-9.43,17.01c-52.26,64.52-109.07,124.88-169.82,180.43"/>
		<path class="st5" d="M1434.63,771.32c-8.24-63.74-19.23-127.08-35.63-185.39c22.01-33.36,44.01-66.73,66.02-100.09
			c35.57,59.75,63.45,124.62,82.66,192.26c-32,39.52-67.55,75.81-106,108.23c-0.6-3.63-4.58-6.16-7.89-5.01
			C1435.34,771.12,1436.89,760.92,1434.63,771.32z"/>
	</g>
	<ellipse class="st0" cx="1190.26" cy="369.52" rx="6.55" ry="21.3"/>
	<path class="st6" d="M1077.83,724.87c31.67-5.11,65.34,3.81,90.32,23.93c5.41,4.36,10.48,9.24,16.59,12.55
		c8.22,4.45,17.71,5.74,26.8,7.96c13.74,3.36,27.32,9.31,36.88,19.74c9.57,10.43,14.38,25.97,9.42,39.22
		c-7.53,20.12-32.38,26.87-53.79,28.6c-19.49,1.58-39.47,1.28-58.1-4.66c-24.49-7.81-44.85-24.72-64.53-41.25
		c-11.84-9.94-23.67-19.88-35.51-29.82C1047.84,779.79,1049.78,778.43,1077.83,724.87z"/>
	<path class="st0" d="M1127.22,665.4c37.92-15.95,81.09-10.02,121.61-2.91c14.64,2.57,31.15,6.55,38.35,19.56
		c8.83,15.98-2.74,37.05-19.2,44.96c-16.46,7.91-35.69,6.35-53.86,4.62c-18.26-1.74-36.52-3.48-54.78-5.22
		c-12.68-1.21-29.72,0.66-31.96,13.2C1128.77,737.58,1130.16,735.55,1127.22,665.4z"/>
	<path class="st7" d="M1117.79,832.93c19.17,19.07,46.39,29.79,73.42,28.91s53.49-13.34,71.38-33.62"/>
	<path class="st7" d="M1127.7,710.1c7.35,16.38,20.22,30.22,36.01,38.73c15.91,8.58,34.1,11.67,51.39,16.98s34.86,13.77,44.23,29.24
		s6.56,39.2-9.62,47.27"/>
</g>
</svg>
